==== Start 2025/08/14 ų▄╦─ 21:35:30.62 ====
Processing "fd1598e340e3eac6de103195c2f29ed5.mp4" 
ffmpeg version 7.1.1-essentials_build-www.gyan.dev Copyright (c) 2000-2025 the FFmpeg developers
  built with gcc 14.2.0 (Rev1, Built by MSYS2 project)
  configuration: --enable-gpl --enable-version3 --enable-static --disable-w32threads --disable-autodetect --enable-fontconfig --enable-iconv --enable-gnutls --enable-libxml2 --enable-gmp --enable-bzlib --enable-lzma --enable-zlib --enable-libsrt --enable-libssh --enable-libzmq --enable-avisynth --enable-sdl2 --enable-libwebp --enable-libx264 --enable-libx265 --enable-libxvid --enable-libaom --enable-libopenjpeg --enable-libvpx --enable-mediafoundation --enable-libass --enable-libfreetype --enable-libfribidi --enable-libharfbuzz --enable-libvidstab --enable-libvmaf --enable-libzimg --enable-amf --enable-cuda-llvm --enable-cuvid --enable-dxva2 --enable-d3d11va --enable-d3d12va --enable-ffnvcodec --enable-libvpl --enable-nvdec --enable-nvenc --enable-vaapi --enable-libgme --enable-libopenmpt --enable-libopencore-amrwb --enable-libmp3lame --enable-libtheora --enable-libvo-amrwbenc --enable-libgsm --enable-libopencore-amrnb --enable-libopus --enable-libspeex --enable-libvorbis --enable-librubberband
  libavutil      59. 39.100 / 59. 39.100
  libavcodec     61. 19.101 / 61. 19.101
  libavformat    61.  7.100 / 61.  7.100
  libavdevice    61.  3.100 / 61.  3.100
  libavfilter    10.  4.100 / 10.  4.100
  libswscale      8.  3.100 /  8.  3.100
  libswresample   5.  3.100 /  5.  3.100
  libpostproc    58.  3.100 / 58.  3.100
Input #0, mov,mp4,m4a,3gp,3g2,mj2, from 'C:\VideoBot\in\fd1598e340e3eac6de103195c2f29ed5.mp4':
  Metadata:
    major_brand     : mp42
    minor_version   : 1
    compatible_brands: isommp41mp42
    creation_time   : 2025-08-14T13:34:38.000000Z
    copyright       : 
    copyright-eng   : 
  Duration: 00:00:10.67, start: 0.000000, bitrate: 741 kb/s
  Stream #0:0[0x1](und): Video: hevc (Main) (hvc1 / 0x31637668), yuv420p(tv, bt709), 720x1280, 683 kb/s, 30 fps, 30 tbr, 600 tbn (default)
      Metadata:
        creation_time   : 2025-08-14T13:34:38.000000Z
        handler_name    : Core Media Video
        vendor_id       : [0][0][0][0]
  Stream #0:1[0x2](und): Audio: aac (LC) (mp4a / 0x6134706D), 44100 Hz, mono, fltp, 51 kb/s (default)
      Metadata:
        creation_time   : 2025-08-14T13:34:38.000000Z
        handler_name    : Core Media Audio
        vendor_id       : [0][0][0][0]
Stream mapping:
  Stream #0:0 -> #0:0 (hevc (native) -> h264 (libx264))
  Stream #0:1 -> #0:1 (aac (native) -> aac (native))
Press [q] to stop, [?] for help
[libx264 @ 0000028896a69400] using cpu capabilities: MMX2 SSE2Fast SSSE3 SSE4.2 AVX FMA3 BMI2 AVX2
[libx264 @ 0000028896a69400] profile High, level 5.0, 4:2:0, 8-bit
[libx264 @ 0000028896a69400] 264 - core 164 r3204 373697b - H.264/MPEG-4 AVC codec - Copyleft 2003-2025 - http://www.videolan.org/x264.html - options: cabac=1 ref=3 deblock=1:0:0 analyse=0x3:0x113 me=hex subme=7 psy=1 psy_rd=1.00:0.00 mixed_ref=1 me_range=16 chroma_me=1 trellis=1 8x8dct=1 cqm=0 deadzone=21,11 fast_pskip=1 chroma_qp_offset=-2 threads=54 lookahead_threads=9 sliced_threads=0 nr=0 decimate=1 interlaced=0 bluray_compat=0 constrained_intra=0 bframes=3 b_pyramid=2 b_adapt=1 b_bias=0 direct=1 weightb=1 open_gop=0 weightp=2 keyint=250 keyint_min=25 scenecut=40 intra_refresh=0 rc_lookahead=40 rc=crf mbtree=1 crf=23.0 qcomp=0.60 qpmin=0 qpmax=69 qpstep=4 ip_ratio=1.40 aq=1:1.00
Output #0, mp4, to 'C:\VideoBot\out\fd1598e340e3eac6de103195c2f29ed5_720p.mp4':
  Metadata:
    major_brand     : mp42
    minor_version   : 1
    compatible_brands: isommp41mp42
    copyright-eng   : 
    copyright       : 
    encoder         : Lavf61.7.100
  Stream #0:0(und): Video: h264 (avc1 / 0x31637661), yuv420p(tv, bt709, progressive), 1280x2276, q=2-31, 30 fps, 15360 tbn (default)
      Metadata:
        creation_time   : 2025-08-14T13:34:38.000000Z
        handler_name    : Core Media Video
        vendor_id       : [0][0][0][0]
        encoder         : Lavc61.19.101 libx264
      Side data:
        cpb: bitrate max/min/avg: 0/0/0 buffer size: 0 vbv_delay: N/A
  Stream #0:1(und): Audio: aac (LC) (mp4a / 0x6134706D), 44100 Hz, mono, fltp, 128 kb/s (default)
      Metadata:
        creation_time   : 2025-08-14T13:34:38.000000Z
        handler_name    : Core Media Audio
        vendor_id       : [0][0][0][0]
        encoder         : Lavc61.19.101 aac
frame=    0 fps=0.0 q=0.0 size=       0KiB time=N/A bitrate=N/A speed=N/A    frame=   16 fps= 15 q=29.0 size=     256KiB time=00:00:00.46 bitrate=4494.7kbits/s speed=0.452x    frame=   64 fps= 41 q=29.0 size=     768KiB time=00:00:02.06 bitrate=3044.4kbits/s speed=1.33x    frame=  108 fps= 52 q=29.0 size=    1536KiB time=00:00:03.53 bitrate=3561.3kbits/s speed=1.71x    frame=  160 fps= 62 q=29.0 size=    2304KiB time=00:00:05.26 bitrate=3583.8kbits/s speed=2.03x    frame=  197 fps= 64 q=29.0 size=    2816KiB time=00:00:06.50 bitrate=3549.1kbits/s speed= 2.1x    frame=  263 fps= 73 q=29.0 size=    3840KiB time=N/A bitrate=N/A speed=N/A    [out#0/mp4 @ 0000028897078d00] video:4524KiB audio:166KiB subtitle:0KiB other streams:0KiB global headers:0KiB muxing overhead: 0.271375%
frame=  320 fps= 82 q=-1.0 Lsize=    4702KiB time=00:00:10.60 bitrate=3634.1kbits/s speed=2.71x    
[libx264 @ 0000028896a69400] frame I:2     Avg QP:20.44  size: 55410
[libx264 @ 0000028896a69400] frame P:82    Avg QP:21.82  size: 27609
[libx264 @ 0000028896a69400] frame B:236   Avg QP:23.24  size:  9562
[libx264 @ 0000028896a69400] consecutive B-frames:  1.2%  1.2%  0.0% 97.5%
[libx264 @ 0000028896a69400] mb I  I16..4: 17.9% 77.8%  4.2%
[libx264 @ 0000028896a69400] mb P  I16..4:  7.2% 19.0%  0.3%  P16..4: 40.3%  5.5%  1.8%  0.0%  0.0%    skip:25.8%
[libx264 @ 0000028896a69400] mb B  I16..4:  1.3%  2.4%  0.0%  B16..8: 28.6%  1.7%  0.2%  direct: 1.8%  skip:64.1%  L0:43.0% L1:54.8% BI: 2.2%
[libx264 @ 0000028896a69400] 8x8 transform intra:69.9% inter:95.7%
[libx264 @ 0000028896a69400] coded y,uvDC,uvAC intra: 28.7% 17.4% 0.4% inter: 6.6% 6.9% 0.0%
[libx264 @ 0000028896a69400] i16 v,h,dc,p: 18% 18%  6% 59%
[libx264 @ 0000028896a69400] i8 v,h,dc,ddl,ddr,vr,hd,vl,hu: 26% 17% 23%  4%  8%  7%  6%  5%  4%
[libx264 @ 0000028896a69400] i4 v,h,dc,ddl,ddr,vr,hd,vl,hu: 28% 19% 16%  4% 12%  8%  7%  3%  2%
[libx264 @ 0000028896a69400] i8c dc,h,v,p: 71% 14% 14%  1%
[libx264 @ 0000028896a69400] Weighted P-Frames: Y:3.7% UV:0.0%
[libx264 @ 0000028896a69400] ref P L0: 66.3% 11.7% 16.6%  5.3%  0.2%
[libx264 @ 0000028896a69400] ref B L0: 91.0%  7.3%  1.7%
[libx264 @ 0000028896a69400] ref B L1: 97.4%  2.6%
[libx264 @ 0000028896a69400] kb/s:3473.54
[aac @ 0000028896aa7680] Qavg: 1039.951
==== End 2025/08/14 ų▄╦─ 21:35:34.73 ====
==== Start 2025/08/14 ų▄╦─ 21:37:15.48 ====
==== End 2025/08/14 ų▄╦─ 21:37:15.49 ====
==== Start 2025/08/14 ų▄╦─ 21:37:37.32 ====
==== End 2025/08/14 ų▄╦─ 21:37:37.32 ====
